<svg width="543" height="123" viewBox="0 0 543 123" fill="none" xmlns="http://www.w3.org/2000/svg">
<g clip-path="url(#clip0_47_206)">
<mask id="mask0_47_206" style="mask-type:luminance" maskUnits="userSpaceOnUse" x="0" y="0" width="543" height="123">
<path d="M543 0H0V122.917H543V0Z" fill="white"/>
</mask>
<g mask="url(#mask0_47_206)">
<path d="M49.9118 52.1737H5.62775C2.53789 52.1737 0 54.6876 0 57.7775V59.6974C0 62.7873 2.53789 65.3252 5.62775 65.3252H49.9118C53.0197 65.3252 55.5395 62.7873 55.5395 59.6974V57.7775C55.5395 54.6876 53.0257 52.1737 49.9118 52.1737Z" fill="white"/>
<path d="M96.4517 0.0480347H71.5288C68.391 0.0480347 65.8531 2.62792 65.8531 5.72378V7.6377C65.8531 10.7756 68.409 13.3134 71.5288 13.3134H96.4517C99.5716 13.3134 102.127 10.7756 102.127 7.6377V5.72378C102.127 2.62792 99.5716 0.0480347 96.4517 0.0480347Z" fill="white"/>
<path d="M157.613 0V0.0120112H156.485C156.863 0.0120112 157.247 0.0119995 157.613 0Z" fill="black"/>
<path d="M286.607 38.7403L280.716 38.7283L263.25 38.7163L269.844 14.6154H293.171L286.607 38.7403ZM305.579 4.90784C304.583 3.5339 303.389 1.91397 301.967 0.0120544H253.771L252.487 4.83583C253.819 6.91174 255.091 8.66367 256.315 10.0796L248.659 38.7103L245.971 48.7779L234.908 90.0321H249.523L259.297 53.4517H282.678L272.904 90.0321H287.651L309.19 9.78561C307.774 7.90169 306.574 6.28178 305.579 4.90784Z" fill="white"/>
<path d="M169.403 19.8471L157.607 63.7892L169.415 19.8591C169.415 19.8591 169.415 19.8471 169.403 19.8471Z" fill="black"/>
<path d="M248.377 9.79162L226.838 90.0381H212.091L232.358 14.6154H208.947L207.543 19.8652L188.692 90.0381H173.944L194.229 14.6154H170.8L169.396 19.8472L157.601 63.7892V63.8192L150.557 90.0381H90.71L82.5983 90.1701H47.5659C47.0559 90.1701 46.5699 90.1281 46.0599 90.0381C42.6401 89.5101 40.0842 87.2782 40.0842 84.5423V82.6404C40.0842 79.5685 43.4621 77.0426 47.5659 77.0426H109.585C110.797 77.0426 113.503 75.5667 113.503 71.8229V70.155C113.503 68.403 113.269 66.3991 110.023 65.1392L67.845 65.2712C64.7611 65.2712 62.2472 62.7573 62.2472 59.6614V57.7775C62.2472 54.6816 64.7611 52.1677 67.845 52.1497L135.216 51.9877C135.408 51.9877 135.612 52.0178 135.816 52.0178H136.986C140.07 52.0178 142.584 49.5039 142.584 46.408V44.5361C142.584 41.9622 140.862 39.8023 138.522 39.1303H36.5504C33.4545 39.1303 30.9406 36.6344 30.9406 33.5506V31.6247C30.9406 28.5408 33.4545 26.0269 36.5504 26.0269H128.556C130.734 25.2529 132.27 23.195 132.27 20.7651V18.8632C132.27 15.7673 129.756 13.2775 126.672 13.2775H117.013V13.2475H112.279C109.195 13.2475 106.681 10.7336 106.681 7.61971V5.7478C106.681 2.68193 109.195 0.150037 112.279 0.150037C122.263 0.150037 132.87 0.120047 143.478 0.0660499C147.275 0.0660499 151.061 0.0360468 154.817 0.0240473H155.369C155.747 0.0240473 156.113 0.0240539 156.479 0.0120544H192.939C194.079 1.52999 195.045 2.83193 195.849 3.91188C196.653 4.99183 197.529 6.20377 198.477 7.52372C200.073 6.20977 201.591 4.99783 203.007 3.91188C204.423 2.83193 206.073 1.52999 207.963 0.0120544H241.135C242.551 1.91397 243.763 3.5339 244.759 4.90784C245.755 6.28178 246.949 7.90169 248.371 9.78561" fill="white"/>
<path d="M156.485 0.0120544C156.119 0.0240539 155.753 0.0240473 155.375 0.0240473H154.823V0.0120544H156.491H156.485Z" fill="black"/>
<path d="M330.171 75.4227H312.868L330.201 75.4527C330.201 75.4527 330.189 75.4407 330.171 75.4227Z" fill="white"/>
<path d="M347.037 34.8825L352.562 14.6154H329.163L327.76 19.8592L312.868 75.4227L330.201 75.4527L336.195 75.4647L343.065 50.0498L358.802 46.09L349.731 80.2405C348.501 81.1885 347.391 82.0704 346.401 82.8684C345.423 83.6724 344.445 84.4163 343.509 85.1363C342.561 85.8382 341.595 86.5942 340.599 87.4042C339.603 88.2082 338.493 89.0841 337.269 90.0321H294.317L315.712 10.0796C314.482 8.66367 313.216 6.91174 311.884 4.83583L313.168 0.0120544H361.364C362.78 1.91397 363.98 3.5339 364.976 4.90784C365.972 6.28178 367.166 7.90169 368.588 9.78561L362.918 30.9167L347.049 34.8765L347.037 34.8825Z" fill="white"/>
<path d="M430.523 0.0120544L406.422 90.0321H391.675L401.466 53.4517H378.067L368.294 90.0321H353.696L364.76 48.7779L367.448 38.7103L375.103 10.0796C373.862 8.66367 372.59 6.91174 371.276 4.83583L372.548 0.0120544H392.395L382.045 38.7103L405.384 38.6803L415.776 0.0120544H430.523Z" fill="white"/>
<path d="M478.431 4.90784C477.435 3.5339 476.241 1.91397 474.819 0.0120544H462.91L459.082 14.6094H466.167L445.9 90.0321H460.648L482.187 9.78561C480.681 7.90169 479.427 6.28178 478.431 4.90784Z" fill="#D1215B"/>
</g>
<path d="M275.076 107.485L272.046 122.641H280.602L280.914 121.123H274.122L275.292 115.429H280.836L281.142 113.917H275.574L276.546 109.003H283.121L283.433 107.485H275.076Z" fill="white"/>
<mask id="mask1_47_206" style="mask-type:luminance" maskUnits="userSpaceOnUse" x="0" y="0" width="543" height="123">
<path d="M543 0H0V122.917H543V0Z" fill="white"/>
</mask>
<g mask="url(#mask1_47_206)">
<path d="M288.761 114.787L286.265 107.491H288.215L289.499 111.523C289.709 112.219 289.871 112.867 290.123 113.653H290.189C290.729 112.897 291.251 112.135 291.719 111.439L294.479 107.491H296.393L290.915 114.925L293.627 122.641H291.677L290.303 118.387C290.057 117.631 289.817 116.857 289.571 116.029H289.511C288.917 116.857 288.335 117.721 287.819 118.477L284.867 122.641H282.953L288.767 114.781L288.761 114.787Z" fill="white"/>
<path d="M302.417 115.099C305.536 115.099 307.186 113.845 307.186 111.421C307.186 109.663 305.986 108.937 303.761 108.937H301.427L300.215 115.099H302.411H302.417ZM299.945 107.485H304.216C307.06 107.485 308.974 108.565 308.974 111.187C308.974 114.901 306.214 116.551 302.345 116.551H299.915L298.715 122.641H296.915L299.945 107.485Z" fill="white"/>
</g>
<path d="M313.564 107.485L310.534 122.641H319.096L319.402 121.123H312.61L313.786 115.429H319.324L319.63 113.917H314.062L315.034 109.003H321.61L321.922 107.485H313.564Z" fill="white"/>
<mask id="mask2_47_206" style="mask-type:luminance" maskUnits="userSpaceOnUse" x="0" y="0" width="543" height="123">
<path d="M543 0H0V122.917H543V0Z" fill="white"/>
</mask>
<g mask="url(#mask2_47_206)">
<path d="M328.654 115.861L330.028 114.805L333.189 122.641H331.263L328.648 115.861H328.654ZM328.732 114.763C331.623 114.763 333.201 113.413 333.201 111.253C333.201 109.591 332.037 108.937 329.806 108.937H327.592L326.458 114.763H328.732ZM326.104 107.485H330.256C333.081 107.485 334.983 108.487 334.983 111.019C334.983 114.415 332.193 116.215 328.816 116.215H326.152L324.874 122.641H323.074L326.104 107.485Z" fill="white"/>
</g>
<path d="M339.843 107.485L336.813 122.641H338.607L341.637 107.485H339.843Z" fill="white"/>
<path d="M346.587 107.485L343.551 122.641H352.112L352.418 121.123H345.633L346.803 115.429H352.34L352.652 113.917H347.085L348.057 109.003H354.632L354.938 107.485H346.587Z" fill="white"/>
<mask id="mask3_47_206" style="mask-type:luminance" maskUnits="userSpaceOnUse" x="0" y="0" width="543" height="123">
<path d="M543 0H0V122.917H543V0Z" fill="white"/>
</mask>
<g mask="url(#mask3_47_206)">
<path d="M359.12 107.485H360.926L364.376 117.193L365.348 120.361H365.438C365.636 118.861 365.816 117.097 366.128 115.531L367.742 107.491H369.47L366.44 122.647H364.664L361.244 112.969L360.26 109.717H360.164C359.966 111.283 359.744 112.969 359.432 114.505L357.818 122.653H356.09L359.12 107.497V107.485Z" fill="white"/>
<path d="M371.828 116.809C371.828 112.039 374.947 107.209 379.645 107.209C381.367 107.209 382.615 108.175 383.377 109.453L382.111 110.401C381.529 109.423 380.713 108.763 379.549 108.763C375.949 108.763 373.658 112.969 373.658 116.635C373.658 119.389 374.809 121.369 377.509 121.369C378.733 121.369 379.741 120.847 380.725 120.013L381.547 121.171C380.425 122.131 379.027 122.917 377.191 122.917C373.741 122.917 371.822 120.433 371.822 116.809" fill="white"/>
</g>
<path d="M387.961 107.485L384.931 122.641H393.487L393.799 121.123H387.007L388.177 115.429H393.721L394.027 113.917H388.459L389.431 109.003H396.006L396.318 107.485H387.961Z" fill="white"/>
<path d="M404.466 107.485L404.16 109.033H408.558L405.852 122.641H407.646L410.358 109.033H414.756L415.062 107.485H404.466Z" fill="white"/>
<mask id="mask4_47_206" style="mask-type:luminance" maskUnits="userSpaceOnUse" x="0" y="0" width="543" height="123">
<path d="M543 0H0V122.917H543V0Z" fill="white"/>
</mask>
<g mask="url(#mask4_47_206)">
<path d="M426.419 113.695C426.419 110.737 425.327 108.757 422.921 108.757C419.669 108.757 417.474 112.879 417.474 116.425C417.474 119.383 418.566 121.357 420.971 121.357C424.229 121.357 426.419 117.241 426.419 113.689M415.638 116.575C415.638 111.949 418.667 107.209 423.017 107.209C426.389 107.209 428.249 109.723 428.249 113.551C428.249 118.177 425.219 122.917 420.869 122.917C417.492 122.917 415.632 120.403 415.632 116.575" fill="white"/>
<path d="M433.631 107.485H435.773L437.093 115.669L437.597 118.795H437.693L439.313 115.669L443.812 107.485H445.948L442.918 122.641H441.209L442.942 114.097C443.236 112.729 443.68 110.971 444.04 109.651H443.956L442.132 113.017L437.663 121.063H436.655L435.251 113.017L434.729 109.651H434.645C434.459 111.001 434.249 112.753 433.997 114.097L432.281 122.641H430.601L433.631 107.485Z" fill="white"/>
<path d="M459.16 113.695C459.16 110.737 458.068 108.757 455.662 108.757C452.41 108.757 450.214 112.879 450.214 116.425C450.214 119.383 451.306 121.357 453.712 121.357C456.97 121.357 459.16 117.241 459.16 113.689M448.378 116.575C448.378 111.949 451.408 107.209 455.758 107.209C459.13 107.209 460.99 109.723 460.99 113.551C460.99 118.177 457.96 122.917 453.61 122.917C450.232 122.917 448.372 120.403 448.372 116.575" fill="white"/>
<path d="M468.921 115.861L470.295 114.805L473.457 122.641H471.531L468.915 115.861H468.921ZM468.999 114.763C471.891 114.763 473.469 113.413 473.469 111.253C473.469 109.591 472.305 108.937 470.073 108.937H467.859L466.725 114.763H468.999ZM466.371 107.485H470.523C473.349 107.485 475.251 108.487 475.251 111.019C475.251 114.415 472.461 116.215 469.083 116.215H466.419L465.141 122.641H463.342L466.371 107.485Z" fill="white"/>
<path d="M482.661 115.861L484.035 114.805L487.197 122.641H485.271L482.655 115.861H482.661ZM482.739 114.763C485.631 114.763 487.209 113.413 487.209 111.253C487.209 109.591 486.045 108.937 483.813 108.937H481.599L480.465 114.763H482.739ZM480.111 107.485H484.263C487.089 107.485 488.99 108.487 488.99 111.019C488.99 114.415 486.201 116.215 482.823 116.215H480.159L478.881 122.641H477.081L480.111 107.485Z" fill="white"/>
<path d="M502.178 113.695C502.178 110.737 501.086 108.757 498.68 108.757C495.428 108.757 493.232 112.879 493.232 116.425C493.232 119.383 494.324 121.357 496.73 121.357C499.988 121.357 502.178 117.241 502.178 113.689M491.396 116.575C491.396 111.949 494.426 107.209 498.776 107.209C502.148 107.209 504.008 109.723 504.008 113.551C504.008 118.177 500.978 122.917 496.628 122.917C493.25 122.917 491.39 120.403 491.39 116.575" fill="white"/>
<path d="M507.962 107.485H509.791L509.57 115.819C509.48 117.445 509.45 119.101 509.336 120.739H509.432C510.151 119.101 510.907 117.439 511.585 115.819L515.371 107.485H516.997L517.201 115.819C517.243 117.433 517.237 119.095 517.231 120.739H517.321C517.945 119.095 518.605 117.439 519.241 115.819L522.529 107.485H524.287L518.053 122.641H515.779L515.611 113.395C515.611 112.273 515.635 111.037 515.677 109.837H515.587C515.149 111.031 514.621 112.183 514.111 113.395L509.983 122.641H507.746L507.956 107.485H507.962Z" fill="white"/>
</g>
<mask id="mask5_47_206" style="mask-type:luminance" maskUnits="userSpaceOnUse" x="471" y="0" width="72" height="90">
<path d="M487.616 0L486.345 4.81779C487.658 6.89369 488.93 8.64563 490.166 10.0616L488.954 14.5914L472.743 75.3507L471.459 80.1685C472.791 82.0644 473.943 83.6903 474.933 85.0582C475.923 86.4322 477.123 88.0521 478.539 89.948H511.687C512.911 89.0001 514.027 88.1241 515.017 87.3201C516.007 86.5162 516.973 85.7602 517.921 85.0582C518.857 84.3443 519.835 83.6003 520.825 82.7964C521.803 81.9924 522.913 81.1164 524.155 80.1685L525.439 75.3507L541.704 14.5914L542.988 9.77357C541.572 7.88966 540.36 6.26972 539.364 4.89579C538.374 3.52185 537.174 1.90192 535.758 0.00600559H487.604L487.616 0Z" fill="white"/>
</mask>
<g mask="url(#mask5_47_206)">
<path d="M543.36 56.5835C546.834 52.2577 551.43 44.6081 551.43 44.6081C551.706 44.1461 551.556 43.5461 551.094 43.2701C550.632 42.9941 550.032 43.1441 549.756 43.6061C549.756 43.6061 545.244 51.1178 541.836 55.3656C541.5 55.7856 541.566 56.4036 541.986 56.7395C542.406 57.0755 543.024 57.0095 543.36 56.5895M547.104 59.9134C547.404 60.3574 548.016 60.4714 548.46 60.1714C548.904 59.8714 549.018 59.2594 548.718 58.8154C548.718 58.8154 547.302 57.0095 547.314 56.9195C547.314 56.7035 547.524 56.5115 547.638 56.3195C548.322 55.1916 549.372 53.7696 549.372 53.7696C549.69 53.3377 549.6 52.7257 549.168 52.4017C548.736 52.0837 548.124 52.1737 547.806 52.6057C547.806 52.6057 545.976 55.0896 545.454 56.2535C545.28 56.6375 545.226 56.9615 545.238 57.1595C545.262 57.5315 545.424 57.7835 545.634 57.9515C545.988 58.2394 547.098 59.9134 547.098 59.9134M543.618 69.207C544.068 69.501 544.674 69.375 544.968 68.925C545.262 68.475 545.136 67.869 544.686 67.5751C544.686 67.5751 542.238 65.9611 537.774 61.7613C533.85 58.0715 537.084 53.6497 537.084 53.6497C537.402 53.2117 537.306 52.5997 536.868 52.2877C536.436 51.9697 535.824 52.0657 535.506 52.5037C535.506 52.5037 531.265 58.3295 536.436 63.1893C541.068 67.5451 543.618 69.207 543.618 69.207ZM543.81 14.3934C543.288 14.5314 542.982 15.0714 543.12 15.5873C543.12 15.5873 544.266 19.8411 544.512 24.6349C544.536 25.1749 544.998 25.5889 545.538 25.5589C546.078 25.5289 546.492 25.0729 546.462 24.5329C546.204 19.5232 545.01 15.0774 545.01 15.0774C544.872 14.5554 544.332 14.2494 543.816 14.3874M544.248 12.5875C542.112 5.60978 536.142 -2.02188 528.775 -5.93371C520.855 -10.1335 513.805 -11.3935 505.028 -9.54556C496.244 -7.69164 489.56 -2.20188 486.957 0.599993C484.395 3.35987 481.065 8.06367 481.065 8.06367C480.753 8.50165 480.861 9.11363 481.299 9.42562C481.737 9.7376 482.349 9.6356 482.661 9.19162C482.661 9.19162 485.901 4.61382 488.396 1.93193C490.85 -0.713948 497.156 -5.88572 505.436 -7.63164C513.727 -9.37757 520.387 -8.17761 527.863 -4.20578C535.476 -2.63985 541.944 4.27184 543.948 10.8235C544.104 11.3395 543.09 13.9674 543.606 13.8114C544.122 13.6554 544.41 13.1095 544.254 12.5935M546.174 27.4968C546.252 26.9628 545.886 26.4649 545.352 26.3869C544.818 26.3089 544.32 26.6748 544.242 27.2088C544.242 27.2088 543.696 30.8927 541.86 36.2984C540.036 41.6622 537.552 44.6021 534.546 48.1299C531.241 52.0117 530.821 55.8996 530.821 55.8996C530.761 56.4335 531.145 56.9195 531.679 56.9795C532.213 57.0395 532.698 56.6555 532.758 56.1215C532.758 56.1215 533.16 52.7677 536.028 49.3958C539.196 45.676 541.788 42.5741 543.708 36.9224C545.61 31.3126 546.174 27.4908 546.174 27.4908M542.376 72.3628C542.832 72.6508 543.438 72.5068 543.72 72.0508C544.008 71.5949 543.864 70.9889 543.408 70.7069C543.408 70.7069 539.838 68.475 536.79 65.2951C534.846 63.2672 533.088 60.8613 532.752 58.3954C532.68 57.8615 532.188 57.4895 531.655 57.5615C531.121 57.6335 530.749 58.1254 530.821 58.6594C531.211 61.4973 533.148 64.3112 535.386 66.6451C538.608 70.0049 542.382 72.3628 542.382 72.3628M540.954 75.3747C541.458 75.5547 542.022 75.2907 542.202 74.7867C542.382 74.2827 542.118 73.7188 541.614 73.5388C541.614 73.5388 534.234 70.8869 530.305 62.8833C528.013 58.2215 529.243 54.2856 531.211 50.9198C532.614 48.5259 534.39 46.402 535.674 44.5061C538.824 39.8383 544.002 32.3866 543.018 22.163C542.142 13.0314 538.05 7.4757 538.05 7.4757C537.732 7.04372 537.12 6.94772 536.688 7.26571C536.256 7.5837 536.16 8.19566 536.478 8.62764C536.478 8.62764 540.264 13.8294 541.08 22.349C542.004 32.0026 537.036 39.0103 534.06 43.4141C532.758 45.34 530.959 47.4999 529.531 49.9298C527.251 53.8116 525.907 58.3535 528.553 63.7412C532.854 72.4948 540.96 75.3687 540.96 75.3687M531.259 7.30171C537.432 14.3214 538.68 21.5811 537.48 28.2528C536.262 34.9785 532.278 40.5642 528.733 44.716C528.385 45.124 528.433 45.742 528.841 46.09C529.249 46.438 529.867 46.39 530.215 45.982C533.958 41.6022 538.122 35.6864 539.4 28.5948C540.696 21.4131 539.376 13.5714 532.722 6.01177C526.051 -1.5719 518.209 -2.84985 518.209 -2.84985C517.681 -2.93985 517.177 -2.57987 517.087 -2.04589C516.997 -1.51792 517.357 -1.00792 517.891 -0.923926C517.891 -0.923926 525.103 0.306015 531.259 7.30171ZM539.172 78.0986C539.64 78.3566 540.24 78.1826 540.498 77.7146C540.756 77.2406 540.588 76.6467 540.114 76.3887C530.899 71.3189 527.179 65.8231 526.099 60.9933C524.521 53.9196 528.607 48.4179 528.607 48.4179C528.931 47.9859 528.841 47.3739 528.409 47.05C527.977 46.726 527.365 46.816 527.041 47.2479C527.041 47.2479 522.409 53.4457 524.191 61.4133C525.355 66.6151 529.243 72.6328 539.166 78.0926M537.528 81.2004C537.972 81.5064 538.578 81.3984 538.884 80.9545C539.19 80.5105 539.082 79.9045 538.638 79.5985C527.857 72.1168 523.057 67.671 522.433 61.0953C521.659 52.9177 524.713 47.9019 529.933 41.0622C535.524 33.7425 536.772 28.1388 536.076 21.4911C535.368 14.7054 532.56 11.4775 532.56 11.4775C532.213 11.0695 531.595 11.0215 531.187 11.3695C530.779 11.7175 530.731 12.3355 531.079 12.7435C531.079 12.7435 533.508 15.6473 534.138 21.6951C534.786 27.8748 533.586 33.0706 528.385 39.8743C522.817 47.164 519.667 52.5577 520.489 61.2753C521.149 68.283 526.033 73.2268 537.522 81.2004M525.853 11.0935C529.543 14.8674 531.439 20.4171 530.797 25.5829C530.143 30.8567 529.021 34.1505 523.657 40.4262C518.767 46.144 516.613 54.6756 517.201 62.2113C517.243 62.7453 517.711 63.1472 518.251 63.1052C518.785 63.0632 519.193 62.5953 519.145 62.0553C518.593 55.0176 520.567 47.038 525.133 41.6922C530.863 34.9905 532.027 31.4566 532.728 25.8229C533.442 20.0811 531.337 13.9194 527.239 9.7256C523.159 5.54979 518.179 2.9219 511.753 3.0299C505.31 3.13789 500.894 6.16775 500.894 6.16775C500.45 6.46773 500.33 7.07971 500.636 7.52369C500.936 7.96767 501.548 8.08166 501.992 7.78168C501.992 7.78168 505.982 5.08179 511.789 4.9858C517.621 4.8838 522.139 7.30171 525.847 11.0935M524.281 74.7267C528.745 78.5246 535.32 83.9243 535.32 83.9243C535.734 84.2663 536.352 84.2063 536.694 83.7923C537.036 83.3783 536.976 82.7604 536.562 82.4184C536.562 82.4184 530.005 77.0306 525.553 73.2448C521.329 69.6569 519.961 65.1752 519.961 65.1752C519.805 64.6592 519.259 64.3652 518.743 64.5272C518.227 64.6832 517.933 65.2291 518.089 65.7451C518.089 65.7451 519.589 70.7429 524.287 74.7327M513.433 90.518C513.805 90.1281 513.793 89.5101 513.403 89.1381C513.403 89.1381 510.367 86.2342 507.536 84.3863C507.086 84.0923 506.48 84.2183 506.186 84.6683C505.892 85.1183 506.018 85.7242 506.468 86.0182C509.162 87.7762 512.047 90.548 512.047 90.548C512.437 90.92 513.055 90.908 513.427 90.518M475.911 88.6641C476.043 89.1861 476.571 89.5041 477.093 89.3721C479.547 88.7601 483.393 87.0742 491.288 84.3683C498.656 81.8424 503.408 84.5183 503.408 84.5183C503.876 84.7883 504.47 84.6263 504.74 84.1583C505.01 83.6903 504.848 83.0964 504.38 82.8264C504.38 82.8264 498.998 79.6585 490.652 82.5204C482.841 85.1963 479.043 86.8702 476.613 87.4762C476.091 87.6082 475.773 88.1361 475.905 88.6581M527.863 90.602C528.793 91.112 529.621 92 530.293 91.238C530.731 90.662 530.449 90.1761 529.993 89.8881C526.681 87.7762 522.259 83.7143 516.355 78.5725C510.205 73.2148 504.512 71.7269 498.35 71.2889C492.176 70.8509 484.539 74.2347 484.539 74.2347C484.047 74.4507 483.825 75.0327 484.047 75.5247C484.263 76.0167 484.845 76.2386 485.337 76.0167C485.337 76.0167 492.452 72.8248 498.212 73.2328C503.984 73.6408 509.318 75.0267 515.071 80.0425C520.015 84.3503 524.749 88.2861 527.863 90.602ZM471.795 82.9644C471.957 83.4803 472.503 83.7623 473.019 83.6063C473.019 83.6063 483.303 80.3845 488.006 78.5665C492.494 76.8326 501.542 74.5887 508.652 79.5325C510.037 80.4925 511.495 81.3564 513.031 82.4424C514.369 83.3903 515.323 81.9804 514.093 81.0745C512.647 80.0125 511.351 79.0285 509.768 77.9306C502.034 72.5548 492.194 74.8647 487.304 76.7486C482.637 78.5486 472.437 81.7464 472.437 81.7464C471.921 81.9084 471.639 82.4544 471.801 82.9704M532.68 88.9161C532.998 88.4841 532.908 87.8722 532.476 87.5542C530.881 86.3722 527.779 84.0743 527.779 84.0743C527.347 83.7503 526.735 83.8463 526.411 84.2783C526.093 84.7103 526.183 85.3223 526.615 85.6463C526.615 85.6463 529.717 87.9502 531.319 89.1321C531.751 89.4501 532.363 89.3601 532.68 88.9281M468.765 77.0306C468.933 77.5406 469.485 77.8166 470.001 77.6486C470.001 77.6486 482.871 73.3708 486.177 71.9489C489.362 70.5749 498.95 68.343 509.899 72.9748C516.679 75.8427 523.633 83.0363 523.633 83.0363C524.005 83.4203 524.623 83.4324 525.013 83.0604C525.397 82.6884 525.409 82.0704 525.037 81.6804C525.037 81.6804 517.753 74.1747 510.661 71.1809C499.004 66.2551 488.798 68.697 485.409 70.1609C482.133 71.5709 469.389 75.8067 469.389 75.8067C468.879 75.9747 468.603 76.5326 468.771 77.0426M513.643 69.129C510.247 62.3973 513.037 54.1296 513.037 54.1296C513.181 53.7036 513.013 53.2297 512.629 52.9957C512.245 52.7557 511.747 52.8097 511.429 53.1217C506.192 58.2335 496.136 64.7912 496.136 64.7912C495.686 65.0852 495.56 65.6911 495.854 66.1411C496.148 66.5911 496.754 66.7171 497.204 66.4231C497.204 66.4231 504.92 61.3833 510.445 56.6495C509.959 59.4574 509.642 63.7472 511.003 67.851C509.252 67.1971 506.69 66.2791 504.416 65.6191L507.518 63.1832C507.638 64.1732 507.692 64.8572 507.692 64.8572C507.728 65.3131 508.124 65.6431 508.58 65.6071C509.036 65.5651 509.378 65.1692 509.342 64.7132C509.342 64.7132 509.252 63.5192 509.03 61.9833L509.006 61.7313C509.006 61.6713 508.982 61.6173 508.97 61.5633C508.97 61.5393 508.964 61.5153 508.958 61.4913C508.946 61.4313 508.922 61.3893 508.886 61.3593C508.784 61.1793 508.634 61.0233 508.442 60.9333C508.124 60.7894 507.752 60.8253 507.47 61.0293L501.59 65.2412C501.278 65.4631 501.128 65.8531 501.2 66.2311C501.278 66.6091 501.566 66.9031 501.944 66.9871C505.886 67.875 512.407 70.4729 512.407 70.4729C512.785 70.6229 513.217 70.5209 513.487 70.2269C513.763 69.9269 513.823 69.489 513.637 69.129M467.931 73.4668C468.069 73.9887 468.603 74.3007 469.125 74.1628C469.125 74.1628 480.243 71.2529 486.717 68.361C494.15 65.0372 500.672 60.1474 506 56.3256C509.443 53.8537 513.391 49.9898 513.391 49.9898C513.775 49.6118 513.781 48.9939 513.403 48.6099C513.025 48.2259 512.407 48.2199 512.023 48.5979C512.023 48.5979 508.202 52.3477 504.86 54.7416C499.628 58.4974 493.22 63.3152 485.919 66.5791C479.559 69.423 468.633 72.2728 468.633 72.2728C468.111 72.4108 467.799 72.9448 467.937 73.4668M525.175 22.121C524.635 22.145 524.221 22.607 524.245 23.141C524.245 23.141 524.485 28.2348 521.263 32.4406C517.855 36.8864 513.739 42.7661 510.044 45.982C506.318 49.2219 500.246 54.1536 500.246 54.1536C499.826 54.4896 499.766 55.1076 500.102 55.5276C500.438 55.9476 501.056 56.0076 501.476 55.6716C501.476 55.6716 507.578 50.7158 511.321 47.4579C515.095 44.1701 519.325 38.1763 522.805 33.6345C526.471 28.8467 526.183 23.051 526.183 23.051C526.159 22.511 525.697 22.097 525.163 22.121M525.247 19.2712C525.247 19.2712 522.871 11.4355 513.673 10.1096C504.68 8.81363 501.548 14.4114 497.03 20.3811C492.8 25.9669 485.811 31.4506 485.811 31.4506C485.385 31.7866 485.313 32.3986 485.643 32.8246C485.979 33.2446 486.591 33.3226 487.017 32.9866C487.017 32.9866 494.228 27.3168 498.59 21.5571C502.658 16.1813 505.304 10.8775 513.397 12.0415C521.293 13.1754 523.381 19.8411 523.381 19.8411C523.537 20.3571 524.089 20.6451 524.599 20.4891C525.115 20.3271 525.403 19.7811 525.247 19.2712ZM466.887 70.3469C467.025 70.8689 467.559 71.1749 468.081 71.0369C468.081 71.0369 480.351 67.731 487.496 64.0232C494.672 60.2974 497.618 58.0475 497.618 58.0475C498.044 57.7235 498.128 57.1055 497.804 56.6795C497.48 56.2535 496.862 56.1695 496.436 56.4935C496.436 56.4935 493.568 58.6715 486.603 62.2893C479.607 65.9191 467.583 69.153 467.583 69.153C467.061 69.2909 466.755 69.831 466.893 70.3469M464.985 60.6093C465.153 61.1193 465.699 61.4073 466.215 61.2393C470.019 60.0214 472.077 59.4814 472.077 59.4814C472.599 59.3434 472.911 58.8154 472.779 58.2934C472.641 57.7715 472.113 57.4595 471.591 57.5915C471.591 57.5915 469.491 58.1375 465.621 59.3794C465.111 59.5474 464.823 60.0934 464.991 60.6093M488.744 45.928C488.3 46.234 488.192 46.846 488.498 47.2839C488.804 47.7279 489.416 47.8359 489.86 47.5299C505.838 36.4064 513.049 24.3889 513.049 24.3889C513.325 23.927 513.175 23.327 512.713 23.051C512.251 22.775 511.651 22.925 511.375 23.387C511.375 23.387 504.32 35.0925 488.744 45.934M501.428 33.3586C501.8 32.9686 501.788 32.3506 501.398 31.9786C501.008 31.6066 500.39 31.6186 500.018 32.0086C496.394 35.7824 488.39 41.9682 488.39 41.9682C487.964 42.2982 487.886 42.9101 488.216 43.3361C488.546 43.7621 489.158 43.8401 489.584 43.5101C489.584 43.5101 497.738 37.2044 501.428 33.3586ZM502.694 29.0087C502.352 29.4287 502.412 30.0407 502.832 30.3827C503.246 30.7247 503.864 30.6647 504.206 30.2447C504.206 30.2447 506.438 27.5148 507.89 25.4689C508.556 24.5269 509.384 23.345 510.373 22.565C511.135 21.9651 512.005 21.6111 512.983 22.091C515.059 23.111 514.105 25.1809 512.887 26.7888C510.715 29.6567 507.086 34.4385 503.594 38.0623C500.762 40.9962 491.132 50.0978 474.099 56.6195C473.595 56.8115 473.343 57.3755 473.535 57.8795C473.727 58.3834 474.291 58.6354 474.795 58.4434C492.236 51.7597 502.094 42.4242 504.992 39.4183C508.544 35.7344 512.227 30.8807 514.435 27.9708C515.779 26.2009 516.559 24.035 515.869 22.367C515.545 21.5811 514.915 20.8731 513.841 20.3451C512.095 19.4872 510.523 19.9671 509.162 21.0411C508.028 21.9351 507.056 23.267 506.294 24.347C504.878 26.3449 502.688 29.0147 502.688 29.0147M466.341 57.6635C476.019 54.9396 487.119 49.2639 487.119 49.2639C487.598 49.0179 487.79 48.4299 487.545 47.9499C487.299 47.4699 486.711 47.2779 486.231 47.5239C486.231 47.5239 475.323 53.1037 465.813 55.7796C465.297 55.9236 464.991 56.4635 465.141 56.9855C465.285 57.5015 465.825 57.8075 466.347 57.6575M464.655 53.6437C464.787 54.1656 465.321 54.4776 465.843 54.3456C465.843 54.3456 475.689 51.8317 486.837 45.358C487.304 45.088 487.46 44.4881 487.191 44.0201C486.921 43.5521 486.321 43.3961 485.859 43.6661C474.975 49.9898 465.363 52.4557 465.363 52.4557C464.841 52.5877 464.53 53.1217 464.662 53.6437M464.685 50.1818C464.847 50.6978 465.399 50.9798 465.909 50.8178C475.131 47.9019 484.407 43.2821 492.8 36.8324C501.152 30.4187 505.58 22.367 507.644 20.2611C509.396 18.4732 512.737 17.4712 515.359 19.5712C517.969 21.6651 518.011 25.0309 517.099 26.6749C516.049 28.5828 511.375 34.3905 508.106 38.2783C504.512 42.5562 493.934 51.5017 485.619 55.5456C477.255 59.6134 466.059 62.7032 466.059 62.7032C465.537 62.8472 465.237 63.3872 465.375 63.9032C465.519 64.4192 466.059 64.7252 466.575 64.5812C466.575 64.5812 477.963 61.4313 486.471 57.2975C495.026 53.1397 505.904 43.9301 509.599 39.5323C512.953 35.5425 517.735 29.5667 518.809 27.6168C520.027 25.4029 520.087 20.8551 516.577 18.0472C513.073 15.2454 508.598 16.5053 506.252 18.8992C504.218 20.9751 499.862 28.9487 491.618 35.2845C483.411 41.5902 474.339 46.108 465.327 48.9579C464.811 49.1199 464.53 49.6718 464.691 50.1818M465.495 45.802C464.98 45.952 464.674 46.492 464.824 47.0079C464.974 47.5239 465.513 47.8299 466.029 47.6799C466.029 47.6799 476.403 44.7221 486.741 37.4564C497.054 30.2027 498.374 27.0828 503.774 19.9311C505.742 17.3273 507.812 15.9653 509.797 15.4313C512.707 14.6514 515.401 15.6533 517.153 16.8953C518.899 18.1372 520.615 20.3931 520.765 23.393C520.867 25.4509 520.225 27.8388 518.431 30.4787C513.631 37.5404 501.314 50.7818 493.01 55.3296C479.169 62.9132 466.569 66.0271 466.569 66.0271C466.047 66.1591 465.723 66.6871 465.855 67.209C465.987 67.731 466.515 68.055 467.037 67.923C467.037 67.923 479.859 64.7612 493.946 57.0395C502.466 52.3717 515.119 38.8183 520.045 31.5706C522.139 28.4868 522.829 25.6909 522.715 23.291C522.535 19.6012 520.435 16.8173 518.281 15.2934C516.139 13.7754 512.845 12.5815 509.294 13.5354C506.972 14.1594 504.512 15.7013 502.214 18.7492C496.946 25.7269 495.674 28.7748 485.613 35.8544C475.569 42.9161 465.489 45.802 465.489 45.802M483.087 33.4125C476.415 38.2603 465.717 42.1182 465.717 42.1182C465.213 42.2982 464.949 42.8621 465.129 43.3661C465.309 43.8701 465.873 44.1341 466.377 43.9541C466.377 43.9541 477.375 39.9763 484.233 34.9905C484.665 34.6725 484.767 34.0605 484.449 33.6285C484.131 33.1966 483.519 33.0946 483.087 33.4125ZM466.581 38.1703C466.083 38.3683 465.837 38.9383 466.035 39.4363C466.233 39.9343 466.803 40.1803 467.301 39.9823C476.139 36.4664 482.085 33.0886 487.646 28.1088C493.484 22.877 494.972 20.2731 500.132 13.7274C503.516 9.43161 510.152 6.68974 517.207 9.31162C524.293 11.9395 527.653 18.5212 527.533 24.6769C527.407 30.9587 524.341 34.2945 520.927 38.6863C517.285 43.3721 514.489 50.3378 513.649 57.6695C512.857 64.5812 515.347 70.0409 519.637 74.6847C523.777 79.1665 533.37 86.3662 533.37 86.3662C533.802 86.6902 534.414 86.6002 534.738 86.1682C535.062 85.7362 534.972 85.1243 534.54 84.8003C534.54 84.8003 525.127 77.7506 521.065 73.3588C517.159 69.129 514.861 64.1732 515.581 57.8855C516.379 50.9318 519.013 44.3201 522.463 39.8743C526.147 35.1345 529.345 31.4866 529.477 24.7069C529.615 17.8012 525.829 10.4216 517.879 7.4757C509.9 4.51783 502.418 7.65569 498.59 12.5155C493.52 18.9532 492.074 21.5151 486.339 26.6509C480.939 31.4866 475.155 34.7505 466.575 38.1643M466.887 34.4805C466.389 34.6905 466.161 35.2665 466.371 35.7584C466.581 36.2564 467.157 36.4844 467.649 36.2744C467.649 36.2744 477.309 32.1706 482.115 28.3548C486.921 24.5389 492.524 18.5512 494.084 16.3613C495.578 14.2614 497.672 11.3575 498.998 10.1576C499.4 9.7976 499.43 9.17962 499.07 8.77764C498.71 8.37565 498.092 8.34566 497.69 8.70564C496.292 9.96559 494.072 13.0074 492.494 15.2213C490.982 17.3453 485.553 23.129 480.903 26.8188C476.253 30.5087 466.887 34.4685 466.887 34.4685M478.953 24.113C475.335 26.8368 467.385 30.7067 467.385 30.7067C466.899 30.9407 466.701 31.5286 466.935 32.0086C467.169 32.4946 467.757 32.6926 468.243 32.4586C468.243 32.4586 476.415 28.4688 480.129 25.6669C483.861 22.853 488.906 17.7052 491.648 13.9794C494.258 10.4336 496.472 6.78573 501.182 4.30184C505.844 1.84195 509.683 1.25397 514.363 1.72795C519.031 2.20193 525.001 4.48783 529.375 10.1276C529.705 10.5536 530.317 10.6316 530.743 10.3016C531.169 9.97159 531.247 9.35962 530.917 8.93363C526.153 2.78391 519.649 0.306015 514.561 -0.215962C509.486 -0.731939 505.322 -0.0959699 500.27 2.57391C495.26 5.2198 492.854 9.04762 490.076 12.8215C487.43 16.4153 482.559 21.3891 478.953 24.107M479.223 19.5772C475.485 22.991 468.201 26.7588 468.201 26.7588C467.721 27.0048 467.535 27.5928 467.781 28.0728C468.027 28.5528 468.621 28.7388 469.095 28.4928C469.095 28.4928 476.655 24.5629 480.537 21.0171C484.407 17.4832 489.194 11.8915 491.744 8.00366C494.156 4.33183 503.426 -3.26382 514.381 -1.5239C514.915 -1.4399 515.413 -1.79989 515.497 -2.33387C515.581 -2.86784 515.221 -3.36583 514.687 -3.44983C502.79 -5.33974 492.728 2.94589 490.112 6.93571C487.634 10.7155 482.979 16.1513 479.223 19.5772ZM469.299 22.385C468.825 22.637 468.639 23.231 468.897 23.705C469.149 24.179 469.743 24.359 470.217 24.107C470.217 24.107 477.231 20.3811 482.277 14.7414C487.143 9.29961 490.34 3.38387 497.198 -0.809948C503.75 -4.81777 513.415 -7.17566 524.149 -2.30388C531.151 0.875983 534.396 5.64577 534.396 5.64577C534.696 6.08975 535.302 6.20975 535.752 5.90976C536.196 5.60978 536.316 5.0038 536.016 4.55382C536.016 4.55382 532.536 -0.641945 524.959 -4.07979C513.499 -9.28156 503.18 -6.75568 496.184 -2.47187C489.146 1.83594 485.823 7.85968 480.831 13.4454C476.013 18.8332 469.311 22.385 469.311 22.385M470.331 17.8732C469.893 18.1852 469.797 18.7972 470.109 19.2352C470.421 19.6732 471.033 19.7752 471.471 19.4572C471.471 19.4572 476.997 15.4733 480.039 12.2155C480.405 11.8195 480.387 11.2015 479.991 10.8355C479.595 10.4696 478.977 10.4876 478.611 10.8835C475.671 14.0334 470.331 17.8732 470.331 17.8732ZM471.207 12.9475C470.745 13.2234 470.595 13.8234 470.871 14.2854C471.147 14.7474 471.747 14.8974 472.209 14.6214C474.861 13.0374 478.077 10.0256 482.799 3.14988C487.262 -3.34783 497.108 -10.6015 507.05 -11.4475C517.033 -12.2934 526.069 -9.91753 533.862 -4.09779C541.62 1.69795 546.312 11.7715 547.164 17.6872C548.022 23.615 548.094 32.7106 544.29 39.8623C540.672 46.672 537.492 50.0918 537.492 50.0918C537.126 50.4878 537.144 51.1058 537.54 51.4718C537.936 51.8377 538.554 51.8197 538.92 51.4238C538.92 51.4238 542.244 47.8659 546.018 40.7802C550.026 33.2386 550.002 23.657 549.096 17.4113C548.196 11.1535 543.246 0.474003 535.032 -5.65773C526.849 -11.7655 517.369 -14.2793 506.888 -13.3914C496.358 -12.4974 485.919 -4.83576 481.197 2.04593C476.727 8.55564 473.727 11.4475 471.213 12.9475M496.952 -13.9974C496.952 -13.9974 489.344 -11.1895 483.627 -5.71773C478.971 -1.25992 476.769 2.8559 474.585 5.27379C474.225 5.67578 474.255 6.29374 474.657 6.65372C475.059 7.01371 475.677 6.98371 476.037 6.58173C478.203 4.18784 480.369 0.102019 484.983 -4.30779C490.406 -9.50356 497.63 -12.1674 497.63 -12.1674C498.134 -12.3534 498.392 -12.9174 498.206 -13.4214C498.02 -13.9254 497.456 -14.1833 496.952 -13.9974ZM499.568 -14.9573C499.058 -14.7533 498.926 -14.0994 499.19 -13.6314C499.454 -13.1574 500.048 -12.9894 500.516 -13.2534C500.516 -13.2534 505.598 -16.0133 516.349 -14.6993C527.245 -13.3674 536.178 -6.88768 540.672 -2.24988C550.782 8.18366 551.37 21.2991 550.638 29.4587C549.906 37.6064 545.046 45.316 543.24 47.8059C542.124 49.3419 540.312 50.9738 539.1 52.7077C538.152 54.0636 537.564 55.4916 537.702 56.9675C537.798 58.0534 538.464 59.3494 539.4 60.6033C541.356 63.2312 544.452 65.7631 544.452 65.7631C544.866 66.1051 545.484 66.0391 545.826 65.6251C546.168 65.2052 546.102 64.5932 545.688 64.2512C545.688 64.2512 543.558 62.5113 541.794 60.4593C540.732 59.2174 539.754 57.8915 539.652 56.7875C539.532 55.4556 540.342 54.2196 541.314 53.0197C542.472 51.5917 543.894 50.2358 544.824 48.9459C546.72 46.324 551.82 38.2003 552.588 29.6267C553.356 21.0651 552.684 7.3257 542.082 -3.61782C537.372 -8.47761 528.007 -15.2513 516.595 -16.6492C512.059 -17.2012 506.294 -17.4412 499.58 -14.9753M549.534 0.588C547.512 -2.90385 545.394 -5.42973 545.394 -5.42973C545.046 -5.84372 544.428 -5.89772 544.02 -5.54974C543.606 -5.20175 543.552 -4.58977 543.9 -4.17579C543.9 -4.17579 545.916 -1.76989 547.848 1.56596C548.118 2.03394 548.718 2.18993 549.18 1.91994C549.648 1.64995 549.804 1.04998 549.534 0.588Z" fill="#D1215B"/>
<path d="M470.595 79.9705C470.757 80.4864 471.303 80.7744 471.819 80.6124C471.819 80.6124 478.869 78.4105 482.451 77.1386C482.955 76.9586 483.225 76.4006 483.045 75.8906C482.865 75.3867 482.307 75.1167 481.797 75.2967C478.239 76.5626 471.237 78.7465 471.237 78.7465C470.721 78.9085 470.439 79.4545 470.595 79.9705Z" fill="#D1215B"/>
<path d="M547.158 62.5952C547.5 62.1752 547.434 61.5633 547.014 61.2213C545.106 59.6734 544.014 58.0534 544.014 58.0534C543.714 57.6094 543.108 57.4895 542.658 57.7895C542.214 58.0895 542.094 58.6954 542.394 59.1454C542.394 59.1454 543.624 60.9873 545.784 62.7392C546.204 63.0812 546.816 63.0152 547.158 62.5952Z" fill="#D1215B"/>
<path d="M527.305 93.3078C527.179 93.3078 527.053 93.2778 526.933 93.2179C526.795 93.1459 523.459 91.4059 515.389 84.2182C515.053 83.9183 515.023 83.4083 515.323 83.0723C515.623 82.7363 516.133 82.7063 516.469 83.0063C524.335 90.008 527.641 91.7599 527.677 91.7719C528.073 91.9759 528.229 92.4679 528.025 92.8699C527.881 93.1518 527.599 93.3138 527.305 93.3138" fill="#D1215B"/>
<path d="M526.579 95.9538C526.471 95.9538 526.357 95.9357 526.249 95.8937C520.681 93.6978 513.763 87.5661 512.587 86.1982C507.548 81.3684 501.686 79.2805 495.158 79.9944C490.268 80.5224 486.855 82.4903 486.819 82.5143L486.747 82.5503C483.993 83.8403 475.839 86.4922 475.491 86.6062C475.023 86.7562 474.519 86.4982 474.363 86.0302C474.213 85.5622 474.471 85.0582 474.939 84.9022C475.023 84.8782 483.267 82.1964 485.955 80.9424C486.381 80.7024 489.92 78.7585 494.96 78.2125C499.838 77.6846 507.074 78.4225 513.853 84.9383L513.919 85.0103C514.621 85.8502 521.395 92.0599 526.897 94.2318C527.359 94.4118 527.581 94.9338 527.401 95.3898C527.263 95.7438 526.927 95.9538 526.567 95.9538" fill="#D1215B"/>
<path d="M512.251 94.8918C512.005 94.8918 511.765 94.7958 511.591 94.5978C500.552 82.4003 490.568 88.0761 490.466 88.1301L490.388 88.1721C487.598 89.456 481.857 91.5559 481.611 91.6459C481.149 91.8139 480.633 91.5739 480.465 91.1119C480.297 90.65 480.537 90.134 480.999 89.966C481.059 89.942 486.867 87.8181 489.602 86.5641C489.992 86.3421 492.716 84.9022 496.772 84.9502C500.696 84.9982 506.678 86.4981 512.917 93.3918C513.247 93.7578 513.217 94.3218 512.857 94.6578C512.683 94.8138 512.473 94.8858 512.257 94.8858" fill="#D1215B"/>
<path d="M513.583 100.892C513.385 100.892 513.187 100.826 513.019 100.688C511.519 99.4636 510.2 98.1977 508.922 96.9677C506.078 94.2379 503.618 91.874 500.258 91.01C496.76 90.11 494.246 90.836 492.89 91.226C489.266 92.2699 485.865 93.9919 485.829 94.0099C485.391 94.2319 484.851 94.0579 484.623 93.6199C484.401 93.1819 484.575 92.6419 485.013 92.4199C485.157 92.3479 488.6 90.602 492.386 89.516C493.796 89.1081 496.73 88.2621 500.696 89.2881C504.512 90.272 507.254 92.8999 510.152 95.6898C511.405 96.8897 512.695 98.1317 514.141 99.3136C514.525 99.6256 514.579 100.19 514.267 100.574C514.087 100.79 513.835 100.904 513.571 100.904" fill="#D1215B"/>
</g>
</g>
<defs>
<clipPath id="clip0_47_206">
<rect width="543" height="123" fill="white"/>
</clipPath>
</defs>
</svg>
